# Blender v3.1.2 OBJ File: ''
# www.blender.org
mtllib demo2.mtl
o Cube
v 1.160516 1.000000 -0.839484
v 1.858728 -0.141272 -1.000000
v 1.160516 1.000000 0.839484
v 1.000000 -1.000000 1.000000
v -1.000000 1.000000 -1.000000
v -1.000000 -1.000000 -1.000000
v -1.000000 1.000000 1.000000
v -1.000000 -1.000000 1.000000
v 3.439590 1.000000 -0.839484
v 2.741378 -0.141272 -1.000000
v 3.439590 1.000000 0.839484
v 3.600106 -1.000000 1.000000
v 4.651916 0.396493 -0.396493
v 4.651916 -0.396493 -0.396493
v 4.651916 0.396493 0.396493
v 4.651916 -0.396493 0.396493
v 4.651916 1.000000 -1.000000
v 4.651916 -1.000000 -1.000000
v 4.651916 1.000000 1.000000
v 4.651916 -1.000000 1.000000
v 6.287148 0.396493 -0.396493
v 6.287148 -0.396493 -0.396493
v 6.287148 0.396493 0.396493
v 6.287148 -0.396493 0.396493
v 1.858728 0.141272 -1.000000
v 1.000000 1.000000 1.000000
v 2.741378 0.141272 -1.000000
v 3.600106 1.000000 1.000000
v 1.160516 2.735761 -0.839484
v 1.160516 2.735761 0.839484
v 3.439590 2.735761 -0.839484
v 3.439590 2.735761 0.839484
v 1.000000 1.000000 -1.000000
v 1.000000 -1.000000 -1.000000
v 3.600106 1.000000 -1.000000
v 3.600106 -1.000000 -1.000000
v 1.858728 0.141272 -11.871202
v 1.858728 -0.141272 -11.871202
v 2.741378 0.141272 -11.871202
v 2.741378 -0.141272 -11.871202
vt 0.875000 0.500000
vt 0.625000 0.750000
vt 0.625000 0.500000
vt 0.375000 1.000000
vt 0.375000 0.750000
vt 0.625000 0.000000
vt 0.375000 0.250000
vt 0.375000 0.000000
vt 0.375000 0.500000
vt 0.125000 0.750000
vt 0.125000 0.500000
vt 0.625000 0.750000
vt 0.625000 0.250000
vt 0.375000 0.500000
vt 0.375000 0.750000
vt 0.375000 0.750000
vt 0.482341 0.500000
vt 0.517659 0.500000
vt 0.517659 0.500000
vt 0.625000 0.520064
vt 0.625000 0.520064
vt 0.625000 0.520064
vt 0.450438 0.575438
vt 0.450438 0.674562
vt 0.450438 0.674562
vt 0.625000 0.750000
vt 0.625000 0.500000
vt 0.625000 0.500000
vt 0.375000 0.500000
vt 0.549562 0.575438
vt 0.549562 0.674562
vt 0.549562 0.575438
vt 0.450438 0.575438
vt 0.549562 0.674562
vt 0.625000 0.729936
vt 0.625000 0.729936
vt 0.625000 0.729936
vt 0.625000 0.520064
vt 0.625000 0.729936
vt 0.482341 0.500000
vt 0.517659 0.500000
vt 0.517659 0.500000
vt 0.482341 0.500000
vt 0.482341 0.500000
vt 0.875000 0.750000
vt 0.625000 1.000000
vn 0.0000 1.0000 0.0000
vn 0.0000 0.0000 1.0000
vn -1.0000 0.0000 0.0000
vn 0.0000 -1.0000 0.0000
vn 0.0000 0.0000 -1.0000
vn 1.0000 0.0000 0.0000
usemtl Material
s off
f 5/1/1 26/2/1 33/3/1
f 26/2/2 8/4/2 4/5/2
f 7/6/3 6/7/3 8/8/3
f 34/9/4 8/10/4 6/11/4
f 4/5/2 28/12/2 26/2/2
f 5/13/5 34/9/5 6/7/5
f 36/14/4 20/15/4 12/16/4
f 10/17/6 39/18/6 27/19/6
f 34/9/4 12/16/4 4/5/4
f 1/20/5 31/21/5 9/22/5
f 14/23/4 24/24/4 16/25/4
f 12/16/2 19/26/2 28/12/2
f 28/12/1 17/27/1 35/28/1
f 35/28/5 18/29/5 36/14/5
f 14/23/6 17/27/6 13/30/6
f 15/31/6 20/15/6 16/25/6
f 13/30/6 19/26/6 15/31/6
f 16/25/6 18/29/6 14/23/6
f 21/32/6 24/24/6 22/33/6
f 16/25/2 23/34/2 15/31/2
f 15/31/1 21/32/1 13/30/1
f 13/30/5 22/33/5 14/23/5
f 1/20/1 26/2/1 3/35/1
f 11/36/1 35/28/1 9/22/1
f 3/35/1 28/12/1 11/36/1
f 9/22/1 33/3/1 1/20/1
f 30/37/1 31/21/1 29/38/1
f 9/22/6 32/39/6 11/36/6
f 11/36/2 30/37/2 3/35/2
f 3/35/3 29/38/3 1/20/3
f 2/40/5 33/3/5 25/41/5
f 27/19/5 36/14/5 10/17/5
f 25/41/5 35/28/5 27/19/5
f 10/17/5 34/9/5 2/40/5
f 37/42/5 40/43/5 38/44/5
f 27/19/1 37/42/1 25/41/1
f 25/41/3 38/44/3 2/40/3
f 2/40/4 40/43/4 10/17/4
f 5/1/1 7/45/1 26/2/1
f 26/2/2 7/46/2 8/4/2
f 7/6/3 5/13/3 6/7/3
f 34/9/4 4/5/4 8/10/4
f 4/5/2 12/16/2 28/12/2
f 5/13/5 33/3/5 34/9/5
f 36/14/4 18/29/4 20/15/4
f 10/17/6 40/43/6 39/18/6
f 34/9/4 36/14/4 12/16/4
f 1/20/5 29/38/5 31/21/5
f 14/23/4 22/33/4 24/24/4
f 12/16/2 20/15/2 19/26/2
f 28/12/1 19/26/1 17/27/1
f 35/28/5 17/27/5 18/29/5
f 14/23/6 18/29/6 17/27/6
f 15/31/6 19/26/6 20/15/6
f 13/30/6 17/27/6 19/26/6
f 16/25/6 20/15/6 18/29/6
f 21/32/6 23/34/6 24/24/6
f 16/25/2 24/24/2 23/34/2
f 15/31/1 23/34/1 21/32/1
f 13/30/5 21/32/5 22/33/5
f 1/20/1 33/3/1 26/2/1
f 11/36/1 28/12/1 35/28/1
f 3/35/1 26/2/1 28/12/1
f 9/22/1 35/28/1 33/3/1
f 30/37/1 32/39/1 31/21/1
f 9/22/6 31/21/6 32/39/6
f 11/36/2 32/39/2 30/37/2
f 3/35/3 30/37/3 29/38/3
f 2/40/5 34/9/5 33/3/5
f 27/19/5 35/28/5 36/14/5
f 25/41/5 33/3/5 35/28/5
f 10/17/5 36/14/5 34/9/5
f 37/42/5 39/18/5 40/43/5
f 27/19/1 39/18/1 37/42/1
f 25/41/3 37/42/3 38/44/3
f 2/40/4 38/44/4 40/43/4
